<?xml version="1.0" encoding="utf-8"?>
<!-- Generator: Adobe Illustrator 19.1.1, SVG Export Plug-In . SVG Version: 6.00 Build 0)  -->
<svg version="1.1" id="Layer_1" xmlns="http://www.w3.org/2000/svg" xmlns:xlink="http://www.w3.org/1999/xlink" x="0px" y="0px"
	 viewBox="-101 198 409 398" style="enable-background:new -101 198 409 398;" xml:space="preserve">
<style type="text/css">
	.st0{opacity:0.35;fill:#FFFFFF;}
</style>
<path class="st0" d="M-11.7,540.8c-0.4-0.3-0.8-0.6-1.2-0.9c-0.4-0.3-0.7-0.6-1.1-0.9l1.1,1.1l0.9,0.9l1,1v-0.6
	C-11.2,541.2-11.5,541-11.7,540.8z M-8.4,505.3l0.1,0.1v-0.2L-8.4,505.3z M-10.1,506.6L-10.1,506.6L-10.1,506.6L-10.1,506.6z
	 M280.6,391.4V391c0-12-1.2-24.2-4.5-34.3v0.1c-0.1-0.2-0.1-0.4-0.2-0.7l0,0V356c-5.9-24.7-16.8-47.5-31.7-67.1
	c-0.1-0.2-0.3-0.4-0.4-0.6c-14.8-19.5-33.5-35.8-54.9-48c-0.6-0.3-1.2-0.7-1.8-1c0,0-0.1,0-0.1-0.1c-4.6-2.3-19.1-9.4-33.8-14.4
	c-6.2-2.1-12.5-3.8-18-4.6c-0.1,0-0.3,0-0.4,0c-0.1,0-0.2,0-0.3,0s-0.1,0-0.2,0h-0.2l0,0l-0.9-0.1V220c0,0-0.1,0-0.2,0
	c-0.3-0.1-0.6-0.1-0.9-0.2c-10.6-1.9-21.5-2.9-32.6-2.9c-5.6,0-11.2,0.3-16.7,0.8c-4.4,0.4-8.8,1-13.1,1.7l0,0
	c-22,3.7-42.7,11.3-61.3,22.2c-0.2,0.1-0.4,0.3-0.7,0.4c-21.4,12.4-40.1,29.3-54.7,49.4c-0.5,0.8-1.1,1.5-1.6,2.3
	c-0.5,0.8-1.1,1.5-1.6,2.3l0,0c-1,1.5-2,2.9-2.9,4.4c-1.9,2.9-3.7,5.9-5.4,8.9l0,0c-7,12.5-12.5,25.7-16.4,39.5l0,0
	c-0.1,0.5-0.3,1-0.4,1.5c-4.1,15.2-6.3,31.1-6.3,47.6c0,4,0.1,8,0.4,12c0,0.3,0,0.5,0.1,0.8l0,0c0,0.2,0,0.4,0,0.7
	c0.2,3.1,0.5,6.2,0.9,9.3c2.1,16.6,6.4,32.5,12.7,47.3c0.3,0.6,0.5,1.3,0.8,1.9c3.1,7.2,6.7,14.2,10.8,20.9c0.4,0.7,0.8,1.4,1.2,2
	c5.4,8.8,11.6,17.1,18.4,24.8c1.3,1.5,2.7,3,4.1,4.5c5.7,6,11.8,11.6,18.2,16.8c0.4,0.3,0.7,0.6,1.1,0.9c0.4,0.3,0.8,0.6,1.2,0.9
	c0.2,0.2,0.5,0.4,0.7,0.6c3.1,2.4,6.3,4.7,9.5,6.9l0.3-0.1l-0.1,0.2c0.6,0.4,1.2,0.8,1.8,1.2c0.3,0.2,0.6,0.4,0.8,0.5l0,0
	c28.3,18.3,62,29,98.2,29c5.1,0,10.2-0.2,15.2-0.6c0.3,0,0.6,0,0.9-0.1c0.3,0,0.6-0.1,0.9-0.1c2.8-0.3,5.7-0.6,8.4-1
	c0.1,0,0.2,0,0.3,0c11.2-2.5,30.8-7.1,43.8-12h0.1c2.6-1.1,5.2-2.3,7.8-3.5c22.9-10.9,43.1-26.4,59.5-45.3c0.4-0.5,0.8-0.9,1.2-1.4
	c0.2-0.2,0.4-0.5,0.6-0.7v0.1c24.9-28.4,33.9-60.4,35.4-66.1v-0.1c0.1-0.4,0.2-0.8,0.3-1.2l0,0l0.3-1.4l0.1-0.1
	c0.1-0.2,0.1-0.3,0.1-0.5c0,0,0-0.1,0-0.2c0,0,0,0,0-0.1l0,0c4-15,6.2-30.8,6.2-47C280.7,395.7,280.6,393.6,280.6,391.4z
	 M-9.2,504.1l-32.3-58.2l-0.3-0.5l-6.9-12.4L11,447.9h0.1v0.1v0.1v0.1v0.1l0,0L-9.2,504.1z M-8.3,505.2v0.2l-0.1-0.1L-8.3,505.2z
	 M202.3,310.5l0.6,11l-66.2-51.8l0,0l31.6-3.2l31.5-3.1l0,0L202.3,310.5z M205.2,322.5H205v-0.2l-3-56.9l42.2,52.5L205.2,322.5z
	 M245.1,319.8l6.6,64.9l-45.1-59.2L245.1,319.8z M202.8,325.1l-12.2,91.7l-62.8-67L202.8,325.1L202.8,325.1z M46.9,382.5l50.5,59
	l0,0l-83.2,4.7L46.9,382.5z M45.7,379.3l-62-17.8l63.6-54.7l-0.5,21.8L45.7,379.3L45.7,379.3z M47.7,379.2l0.3-14.8l1.3-58l0,0
	l74.4,42.8L47.7,379.2z M124.5,351L99,440.3l-50.7-59.2L124.5,351z M98,443.4L67.7,517l-53.3-68.9L98,443.4z M68.1,520.8l0.2-0.4
	l0.1,0.1l27.2,17.8l-37.1-0.8L68.1,520.8z M99.8,444.2L99.8,444.2L99.8,444.2l0.2,0.1l55.7,58.7l-86,14.7L99.8,444.2z M101.4,442.9
	l88.3-22.4l-32.4,81.4L101.4,442.9z M189.5,418.5L189.5,418.5l-32.1,8.2L101,441l0,0l25.5-89.6L189.5,418.5z M125.2,347.7
	L125.2,347.7l-57.4-33l-17.2-9.9l82.4-34.2L125.2,347.7z M49.5,303.1l7.6-59.4l74.2,25.4L49.5,303.1z M47.5,303l-0.1,0.4h-0.1
	l-61.5-16.1l69.3-43L47.5,303z M46.2,305.1l-63.5,54.6l1.6-70.7L46.2,305.1z M45.2,381.3l-32.6,63.5l-30-81.4l0,0v-0.1v0.1
	L45.2,381.3z M10.9,445.8l-60.2-15.1l30.3-66.1L10.9,445.8z M-19.3,360.5v0.3h-0.1l0.1-0.1l-41-11.9l0,0l42.6-57.9L-19.3,360.5z
	 M-20.2,362.5h-0.2l0,0H-20.2z M-20.3,362.6l-29.9,65.3l0,0l-11.2-77.2L-20.3,362.6z M-51.6,432L-51.6,432l0.2,0.1l0.1,0.2l0,0
	l0.8,1.4l7,12.6L-76,415l24,16.8L-51.6,432z M-7.7,505.7l20.5-56.4l52.8,68.3l0,0l0,0L-7.7,505.7L-7.7,505.7z M-5.4,508.1l71.8,11.7
	l-10.1,17.7l-0.5,0.9l-9.7,17l-8.8-8l-0.2-0.2l-10.2-9.3l-1.6-1.5l-10.7-9.7l-0.3-0.3l-1.6-1.5l-0.2-0.2l-0.2-0.2l-2.3-2.1l0,0
	L-5.8,508L-5.4,508.1z M57.5,539.4l25.1,14.3l-34.5,2.2L57.5,539.4z M61.9,539.6l33,0.7l-9.2,12.9L61.9,539.6z M88,553.4l9.8-13.7
	l24.6,16.1l-34.9-1.5h-0.2L88,553.4z M70.7,519.6l85-14.5l-30,50.6L70.7,519.6z M157.8,505.3l0.1-0.2l0.2,0.1l0,0l7.4,5.5l23.8,17.6
	l-60.9,26.5L157.8,505.3z M159.7,503.9l69.7-29.3l-38.3,52.5L159.7,503.9z M159.5,501.8l3-7.5l29.1-73.3l0,0l39.1,50.9L159.5,501.8z
	 M193,419.6L193,419.6l-0.2-0.2l0,0l0.1-0.1l57.9-26.6l-19.1,77.4L193,419.6z M192.6,417.3L192.6,417.3l6.8-50.9l5.3-40.2l47,63.6
	l0.2,0.2l-0.3,0.1l0,0L192.6,417.3z M251.1,358.6l-3.7-36.6l0,0l26.3,34.5l-19.8,28.7l0,0l0,0L251.1,358.6z M272.7,352.1l-24.9-32.6
	l-0.9-1.2l-0.1-0.8l-2.4-24.8C257.3,310.4,267,330.4,272.7,352.1z M244.7,315.3v0.2l0,0l-39.4-49l0,0l36.9,23.3L244.7,315.3z
	 M238.6,285.1l-34.8-22l-2-1.3l0,0l-0.2-0.1l0,0l-0.2-0.3L191,244C209.1,254.7,225.3,268.7,238.6,285.1z M152.5,226.7
	C152.6,226.7,152.6,226.8,152.5,226.7c11.7,3.6,22.9,8.4,33.4,14.2l0,0c0.6,0.3,1.1,0.6,1.4,0.7l0.1,0.1l10.4,17.5v0.1l-1.5-0.9
	l-56.8-35.2l0,0l-0.5-0.3C143.4,223.9,148,225.2,152.5,226.7z M135.1,222.9l62.6,38.8l-62.5,6.3h-0.1V222.9z M135,270.9L135,270.9
	l36.9,28.9l30,23.5l-74.4,24.5l-0.3,0.1v-0.1l3.1-30.5L135,270.9z M133.1,222.4v45.2l-73.4-25.2L133.1,222.4z M70.6,221
	c9.4-1.5,19-2.3,28.9-2.3c10.3,0,20.3,0.9,30.1,2.5l-39.9,10.9l-31.2,8.5L70.6,221z M68,221.5l-12.1,19.6l-0.1,0.2H12.5
	C29.5,231.8,48.2,225,68,221.5z M9.1,243.3h43.7l-66.7,41.5L9.1,243.3z M5.8,245.2l-23,41.3l-0.1,0.3l-0.3,0.1l-26.6,4.1
	C-30.6,272.8-13.6,257.2,5.8,245.2z M-51.7,303.1l0.4-1.9l0,0c1.7-2.7,3.5-5.4,5.4-8l27-4.2l0,0l-15.3,20.9l-25.9,35.2L-51.7,303.1z
	 M-56.8,310.3L-56.8,310.3c0.8-1.4,1.6-2.8,2.5-4.2l-5.8,28.8l-2.7,13.3v0.1h-9.7L-56.8,310.3z M-79.7,397.9
	c0-16.5,2.2-32.4,6.4-47.6h9.9v0.1l0,0L-79.5,405C-79.6,402.7-79.7,400.3-79.7,397.9z M-62.7,355.2l10.7,74l-27-18.8L-62.7,355.2z
	 M-78.8,415l35.4,34.2l-22.5,17.5C-72.7,450.5-77.1,433.2-78.8,415z M-65.1,468.6l21.3-16.6L-55,488.5
	C-58.8,482.1-62.2,475.5-65.1,468.6z M-31,520.6c-8.6-9.1-16.2-19.1-22.7-29.9l0.3-0.6l11.3-36.6l12,67.5L-31,520.6z M-28,521.1
	L-40.4,452l29.5,53.2l0.8,1.4v0.1l0,0l0,0l0,0L-28,521.1z M-12.7,537.5L-27.2,523l16.6-13.3L-12.7,537.5z M-8.2,508.6v-0.3l16,14.9
	l0.3,0.3l2,1.9l-20.8,12.5L-8.2,508.6z M-0.4,546.5c-3.2-2.2-6.4-4.5-9.5-6.8l19.1-11.5L-0.4,546.5z M12,527.1l1.7,1.5l0.3,0.3
	l9.4,8.3l-0.2,0.1l-21.6,9.5L12,527.1z M24.9,538.8l0.2-0.1l10.3,9.6l0.2,0.2l3.6,3.4l-35.8-3.6L24.9,538.8z M5.8,550.5l36,3.6
	l2.2,2l1.8,1.6l0.9,0.8l17.3,15C43,569.3,23.4,561.4,5.8,550.5z M48.8,557.8l34.5-2.2l-17.4,17L48.8,557.8z M99.5,577.1
	c-11,0-21.8-1-32.2-2.9l18.3-17.9l26.7,20.3C108.1,576.9,103.8,577.1,99.5,577.1z M114.7,575.9l-25.5-19.4l35.1,1.5h0.1l-0.6,1.1
	L114.7,575.9z M175.4,560.2L175.4,560.2c-1.9,1.1-4.3,2.1-6.9,3.1c-0.1,0.1-0.3,0.1-0.4,0.2c-13.7,5.7-28.3,9.8-43.5,11.9h-0.1
	c-2.5,0.4-5.1,0.7-7.6,0.9l10-18.5l0,0l0.1-0.2l-0.1,0.2l62.6-27.3L175.4,560.2z M178.2,558.8l13.8-29.5l41.9-13.2
	C218.4,533.8,199.5,548.4,178.2,558.8z M193.9,526.6l37.7-51.7l4.4,38.4L193.9,526.6z M237.9,511.6l-2.8-24.4l-1.6-14.2v-0.1l0,0
	l0.4-0.3l0,0l37.3-23.1C264.2,472.5,252.8,493.5,237.9,511.6z M234,470.1l19.8-77.2l18.1,50.7l0.4,1L234,470.1z M278.6,391.8
	c-0.1,21.1-3.8,41.6-5.4,49.5l-18.6-51.9l-0.2-0.6l-0.2-0.6l0,0l20.2-29.3l0,0c2.3,10.4,3.7,21.1,4.2,32.1V391.8z"/>
</svg>
