<?xml version="1.0" encoding="utf-8"?>
<!-- Generator: Adobe Illustrator 22.1.0, SVG Export Plug-In . SVG Version: 6.00 Build 0)  -->
<svg version="1.1" id="Layer_1" xmlns="http://www.w3.org/2000/svg" xmlns:xlink="http://www.w3.org/1999/xlink" x="0px" y="0px"
	 viewBox="0 0 489.8 402.7" style="enable-background:new 0 0 489.8 402.7;" xml:space="preserve">
<style type="text/css">
	.st0{fill:#EFEFEF;}
</style>
<title>brandID</title>
<path class="st0" d="M359.4,82.2H303v-8.6h56.4V82.2z M359.4,19.7H303v41.9h56.4V19.7z M489.7,398.7V284.8c0-2.2-1.8-4-4-4H232
	c-2.2,0-4,1.8-4,4v113.8c0,2.2,1.8,4,4,4h253.7C487.9,402.7,489.7,400.9,489.7,398.7z M236,288.9h245.7v105.8H236V288.9z
	 M233.7,373.4c0-2.2-1.8-4-4-4H115.9v-42c0-2.2-1.8-4-4-4s-4,1.8-4,4v46c0,2.2,1.8,4,4,4h117.8C231.9,377.4,233.7,375.6,233.7,373.4
	z M379.5,285V4c0-2.2-1.8-4-4-4H111.9c-2.2,0-4,1.8-4,4v58.3c0,2.2,1.8,4,4,4s4-1.8,4-4V8.1h255.6v277c0,2.2,1.8,4,4,4
	S379.5,287.2,379.5,285z M303.3,354.1h-56.4v8.6h56.4V354.1z M303.3,300.1h-56.4V342h56.4V300.1z M210,108.7c0,0,0,0.1-0.1,0.1
	c0.1,0,0.1-0.1,0.2-0.1C210.1,108.8,210,108.8,210,108.7z M210,108.7c0,0,0,0.1-0.1,0.1c0.1,0,0.1-0.1,0.2-0.1
	C210.1,108.8,210,108.8,210,108.7z M220.4,238.7c2.1-0.6,3.4-2.8,2.8-4.9c-8.6-32-21.7-62.5-39.1-90.6
	c-16.5-26.7-45.2-42.7-76.6-42.7c-2.2,0-4,1.8-4,4c0,2.2,1.8,4,4,4c28.6,0,54.7,14.5,69.8,38.9c17,27.5,29.9,57.2,38.2,88.4
	c0.5,1.8,2.1,3,3.9,3C219.7,238.8,220,238.8,220.4,238.7z M25.4,190.7c0-28.7,14.6-54.8,38.8-69.8c1.9-1.2,2.5-3.6,1.3-5.5
	c-1.2-1.9-3.6-2.5-5.5-1.3c-26.7,16.5-42.6,45.1-42.6,76.6c0,2.2,1.8,4,4,4c0,0,0,0,0,0C23.6,194.7,25.4,192.9,25.4,190.7z
	 M57.6,303.5c2.2-0.3,3.7-2.3,3.4-4.5c-3.2-23.3-11-45.2-23.3-65.1c-1.2-1.9-3.6-2.5-5.5-1.3c-1.9,1.2-2.5,3.6-1.3,5.5
	C42.5,257,50,277.9,53,300c0.3,2,2,3.5,4,3.5C57.2,303.5,57.4,303.5,57.6,303.5z M39,295.5c2.2-0.5,3.6-2.6,3.1-4.8
	c-3.6-17-10-33.1-19.1-47.8C-5.8,196.4,8.6,135.1,55.1,106.2c1.9-1.2,2.5-3.6,1.3-5.5c-1.2-1.9-3.6-2.5-5.5-1.3
	C0.6,130.6-15,196.8,16.2,247.2c8.6,13.9,14.7,29.2,18.1,45.2c0.4,1.9,2.1,3.2,3.9,3.2C38.5,295.6,38.7,295.6,39,295.5z M90.9,92.7
	c10.9-1.8,22.3-1.8,33.2,0c2.2,0.4,4.3-1.1,4.6-3.3c0.4-2.2-1.1-4.3-3.3-4.6c-11.7-2-24-2-35.8,0c-2.2,0.4-3.7,2.4-3.3,4.6
	c0.3,2,2,3.3,4,3.3C90.4,92.8,90.7,92.8,90.9,92.7z M230.5,212.1c2.1-0.7,3.2-3,2.5-5.1c-8.6-25.5-20.2-50-34.4-72.8
	c-9.4-15.2-22.5-27.9-37.8-36.7c-1.9-1.1-4.4-0.4-5.5,1.5c-1.1,1.9-0.4,4.4,1.5,5.5c14.2,8.1,26.3,19.9,35,33.9
	c13.8,22.3,25.1,46.3,33.6,71.2c0.6,1.7,2.1,2.7,3.8,2.7C229.7,212.3,230.1,212.2,230.5,212.1z M207.3,259c2.2-0.5,3.6-2.6,3.1-4.8
	c-7.7-36.2-21.5-70.5-41-102c-13.4-21.6-36.6-34.5-62-34.5c-7.7,0-15.3,1.2-22.6,3.6c-2.1,0.7-3.3,3-2.6,5.1c0.7,2.1,3,3.3,5.1,2.6
	c6.5-2.1,13.3-3.2,20.1-3.2c22.6,0,43.3,11.5,55.2,30.7c19,30.7,32.4,64.1,40,99.4c0.4,1.9,2.1,3.2,3.9,3.2
	C206.7,259.1,207,259,207.3,259z M75.3,308.1c2.2-0.2,3.8-2.2,3.6-4.4c-2.7-27.9-11.9-55.2-26.6-78.9c-13.3-21.5-12.8-49,1.2-70.1
	c1.2-1.8,0.7-4.3-1.1-5.6c-1.8-1.2-4.3-0.7-5.6,1.1C31,174,30.5,204.9,45.5,229c14,22.7,22.8,48.8,25.4,75.5c0.2,2.1,1.9,3.6,4,3.6
	C75,308.1,75.1,308.1,75.3,308.1z M57.6,303.5c2.2-0.3,3.7-2.3,3.4-4.5c-3.2-23.3-11-45.2-23.3-65.1c-1.2-1.9-3.6-2.5-5.5-1.3
	c-1.9,1.2-2.5,3.6-1.3,5.5C42.5,257,50,277.9,53,300c0.3,2,2,3.5,4,3.5C57.2,303.5,57.4,303.5,57.6,303.5z M192.7,274.8
	c2.2-0.4,3.7-2.4,3.3-4.6c-6.2-36.3-18.8-70.8-37.4-102.5c-1.1-1.9-3.6-2.6-5.5-1.4c-1.9,1.1-2.6,3.6-1.4,5.5
	c18.1,30.9,30.3,64.5,36.4,99.8c0.3,2,2,3.3,4,3.3C192.2,274.9,192.4,274.9,192.7,274.8z M145.9,155.9c1.5-1.6,1.5-4.1-0.1-5.7
	c-3.5-3.3-7.4-6.2-11.6-8.5c-1.9-1.1-4.4-0.4-5.5,1.6c-1.1,1.9-0.4,4.4,1.6,5.5c3.6,2,6.9,4.4,9.9,7.2c0.8,0.7,1.8,1.1,2.8,1.1
	C144.1,157.2,145.1,156.8,145.9,155.9z M65.6,221.3c1.9-1.2,2.5-3.6,1.3-5.5C53.1,193.4,60,164,82.4,150.1
	c7.5-4.7,16.2-7.1,25.1-7.1c2.2,0,4-1.8,4-4c0-2.2-1.8-4-4-4c-10.4,0-20.5,2.9-29.3,8.3c-26.1,16.2-34.2,50.5-18,76.6
	c0.8,1.2,2.1,1.9,3.4,1.9C64.2,221.9,65,221.7,65.6,221.3z M92.7,310.2c2.2-0.2,3.9-2.1,3.7-4.3c-1.5-19.8-6-39.2-13.2-57.6
	c-0.8-2.1-3.1-3.1-5.2-2.3c-2.1,0.8-3.1,3.1-2.3,5.2c6.9,17.7,11.2,36.3,12.6,55.3c0.2,2.1,1.9,3.7,4,3.7
	C92.4,310.2,92.5,310.2,92.7,310.2z M75.3,308.1c2.2-0.2,3.8-2.2,3.6-4.4c-2.7-27.9-11.9-55.2-26.6-78.9c-1.2-1.9-3.6-2.5-5.5-1.3
	c-1.9,1.2-2.5,3.6-1.3,5.5c14,22.7,22.8,48.8,25.4,75.5c0.2,2.1,1.9,3.6,4,3.6C75,308.1,75.1,308.1,75.3,308.1z M177,287.2
	c2.2-0.3,3.7-2.3,3.4-4.5c-5.5-40.1-19-77.9-40.3-112.3c-7.1-11.4-19.3-18.2-32.7-18.2c-7.1,0-14.1,2-20.2,5.8
	c-7.5,4.7-13.2,11.8-16.1,20.2c-0.7,2.1,0.4,4.4,2.5,5.1c2.1,0.7,4.4-0.4,5.1-2.5c2.3-6.6,6.8-12.3,12.7-16c4.8-3,10.4-4.6,16-4.6
	c10.6,0,20.3,5.4,25.9,14.4c20.7,33.4,33.9,70.1,39.2,109.1c0.3,2,2,3.5,4,3.5C176.6,287.2,176.8,287.2,177,287.2z M109.9,310.1
	c2.2-0.2,3.9-2.1,3.7-4.3c-2.5-35.1-13.6-69.4-32.1-99.2c-1.2-1.9-3.6-2.5-5.5-1.3c-1.9,1.2-2.5,3.6-1.3,5.5
	c17.8,28.7,28.4,61.7,30.9,95.5c0.2,2.1,1.9,3.7,4,3.7C109.7,310.1,109.8,310.1,109.9,310.1z M127,307.9c2.2-0.2,3.9-2.1,3.7-4.3
	c-2.9-37.5-14.8-74.1-34.5-106c-3.8-6.2-1.9-14.3,4.3-18.2c3-1.9,6.5-2.4,10-1.6c3.4,0.8,6.3,2.9,8.2,5.9
	c20.4,32.9,33.4,70.7,37.6,109.3c0.2,2.2,2.2,3.8,4.4,3.6c2.2-0.2,3.8-2.2,3.6-4.4c-4.3-39.8-17.7-78.8-38.8-112.7
	c-3-4.8-7.7-8.2-13.2-9.5c-5.5-1.3-11.2-0.4-16,2.6c-10,6.2-13,19.3-6.9,29.2c19,30.8,30.6,66.2,33.3,102.4c0.2,2.1,1.9,3.7,4,3.7
	C126.8,307.9,126.9,307.9,127,307.9z M144,303.4c2.2-0.2,3.8-2.1,3.6-4.4c-2.2-24.9-8-49.2-17.4-72.3c-5.3-13.2-11.9-26.1-19.4-38.2
	c-1.2-1.9-3.6-2.5-5.5-1.3c-1.9,1.2-2.5,3.6-1.3,5.5c7.3,11.8,13.6,24.2,18.8,37c9,22.3,14.7,45.9,16.8,70c0.2,2.1,1.9,3.7,4,3.7
	C143.8,303.4,143.9,303.4,144,303.4z M143.6,299.4"/>
</svg>
