<?xml version="1.0" encoding="utf-8"?>
<!-- Generator: Adobe Illustrator 22.1.0, SVG Export Plug-In . SVG Version: 6.00 Build 0)  -->
<svg version="1.1" id="Layer_1" xmlns="http://www.w3.org/2000/svg" xmlns:xlink="http://www.w3.org/1999/xlink" x="0px" y="0px"
	 viewBox="0 0 467.3 405" style="enable-background:new 0 0 467.3 405;" xml:space="preserve">
<style type="text/css">
	.st0{fill:#F0EFEF;}
</style>
<title>logo</title>
<g id="Layer_2_1_">
	<g id="Layer_1-2">
		<path class="st0" d="M435.2,304.7L435.2,304.7L435.2,304.7z M422.7,316.8c-2.1-1.7-5.3-1.4-7,0.7c-1,1.2-1.4,2.9-1,4.4l-13.4,15.2
			c1.4,1.1,2.7,2.4,3.8,3.8l13.6-15.5c2.7,0.4,5.2-1.6,5.6-4.3C424.6,319.5,424,317.9,422.7,316.8L422.7,316.8z M422.7,316.8
			c-2.1-1.7-5.3-1.4-7,0.7c-1,1.2-1.4,2.9-1,4.4l-13.4,15.2c1.4,1.1,2.7,2.4,3.8,3.8l13.6-15.5c2.7,0.4,5.2-1.6,5.6-4.3
			C424.6,319.5,424,317.9,422.7,316.8L422.7,316.8z M422.7,316.8c-2.1-1.7-5.3-1.4-7,0.7c-1,1.2-1.4,2.9-1,4.4l-13.4,15.2
			c1.4,1.1,2.7,2.4,3.8,3.8l13.6-15.5c2.7,0.4,5.2-1.6,5.6-4.3C424.6,319.5,424,317.9,422.7,316.8L422.7,316.8z M422.7,316.8
			c-2.1-1.7-5.3-1.4-7,0.7c-1,1.2-1.4,2.9-1,4.4l-13.4,15.2c1.4,1.1,2.7,2.4,3.8,3.8l13.6-15.5c2.7,0.4,5.2-1.6,5.6-4.3
			C424.6,319.5,424,317.9,422.7,316.8L422.7,316.8z M435.2,304.7L435.2,304.7L435.2,304.7z M422.7,316.8c-2.1-1.7-5.3-1.4-7,0.7
			c-1,1.2-1.4,2.9-1,4.4l-13.4,15.2c1.4,1.1,2.7,2.4,3.8,3.8l13.6-15.5c2.7,0.4,5.2-1.6,5.6-4.3C424.6,319.5,424,317.9,422.7,316.8
			L422.7,316.8z M422.7,316.8c-2.1-1.7-5.3-1.4-7,0.7c-1,1.2-1.4,2.9-1,4.4l-13.4,15.2c1.4,1.1,2.7,2.4,3.8,3.8l13.6-15.5
			c2.7,0.4,5.2-1.6,5.6-4.3C424.6,319.5,424,317.9,422.7,316.8L422.7,316.8z M422.7,316.8c-2.1-1.7-5.3-1.4-7,0.7
			c-1,1.2-1.4,2.9-1,4.4l-13.4,15.2c1.4,1.1,2.7,2.4,3.8,3.8l13.6-15.5c2.7,0.4,5.2-1.6,5.6-4.3C424.6,319.5,424,317.9,422.7,316.8
			L422.7,316.8z M422.7,316.8c-2.1-1.7-5.3-1.4-7,0.7c-1,1.2-1.4,2.9-1,4.4l-13.4,15.2c1.4,1.1,2.7,2.4,3.8,3.8l13.6-15.5
			c2.7,0.4,5.2-1.6,5.6-4.3C424.6,319.5,424,317.9,422.7,316.8L422.7,316.8z M422.7,316.8c-2.1-1.7-5.3-1.4-7,0.7
			c-1,1.2-1.4,2.9-1,4.4l-13.4,15.2c1.4,1.1,2.7,2.4,3.8,3.8l13.6-15.5c2.7,0.4,5.2-1.6,5.6-4.3C424.6,319.5,424,317.9,422.7,316.8
			L422.7,316.8z M435.2,304.7L435.2,304.7L435.2,304.7z M466.4,304l-36.6-32.1c-1.1-1-2.8-0.9-3.8,0.3l-10.4,11.8
			c-1,1.1-0.9,2.8,0.3,3.8l6.8,6c-5.8,1.2-14.4,4.6-23,14.4c-7.3,8.3-8.6,16.8-8.9,24.2c-1.4-0.3-2.9-0.4-4.4-0.4
			c-11.6,0-21.5,8.4-23.5,19.8c-29.3,0.5-82.8-3.8-120.5-36.5c-25.3-21.9-39.7-53.1-43.2-93.1c10.8-2.5,17.5-13.3,14.9-24.1
			c-1.8-7.7-8-13.6-15.8-15.1V47.3c13-2.1,21.8-14.3,19.8-27.3c-2.1-13-14.3-21.8-27.3-19.8S169,14.6,171.1,27.6
			c1.6,10.2,9.6,18.1,19.8,19.8v95.3c-7.6-27.6-21.1-50.6-40.2-68.9C116.9,41.6,73.8,31.9,47.5,29C46,15.9,34.2,6.6,21.1,8
			s-22.4,13.3-21,26.4s13.3,22.4,26.4,21c10.2-1.2,18.5-8.7,20.6-18.7c25.4,2.9,66.8,12.4,98.4,42.6c26.3,25.1,41.3,60,44.6,103.8
			c-10.8,2.5-17.5,13.2-15.1,24c1.8,7.8,8,13.7,15.8,15.2v135.5c-13,2.1-21.8,14.3-19.8,27.3c2.1,13,14.3,21.8,27.3,19.8
			s21.8-14.3,19.8-27.3c-1.6-10.2-9.6-18.1-19.8-19.8v-98.9c7.5,25.2,20.6,46,39.2,62c29.8,25.8,68.4,34.5,95.6,37.2
			c9.3,0.9,17.9,1.2,25.4,1.2c1.5,0,3,0,4.4,0c2,13,14.2,21.9,27.2,19.9c11.6-1.8,20.2-11.8,20.2-23.5c0-1.6-0.2-3.2-0.5-4.8
			c0.7-0.1,1.3-0.3,2-0.4c7.2-1.3,15.5-3.7,22.7-11.9c8.6-9.8,10.9-19,11.3-24.7l6.8,6c1.1,1,2.8,0.9,3.8-0.2c0,0,0,0,0,0l10.4-11.8
			C467.6,306.7,467.5,305,466.4,304C466.4,304,466.4,304,466.4,304z M39.5,36c-2.4,8.7-11.3,13.8-19.9,11.4
			C10.9,45.1,5.8,36.1,8.2,27.5s11.3-13.8,19.9-11.4c7.1,1.9,12,8.4,12,15.7C40.1,33.2,39.9,34.6,39.5,36z M210.9,381.2
			c0,9-7.3,16.3-16.3,16.3c-9,0-16.3-7.3-16.3-16.3c0-7.6,5.2-14.2,12.6-15.9c2.5-0.6,5-0.6,7.5,0
			C205.7,367.1,210.9,373.7,210.9,381.2z M194.6,40.1c-9,0-16.3-7.3-16.3-16.3c0-9,7.3-16.3,16.3-16.3s16.3,7.3,16.3,16.3
			c0,0,0,0,0,0C210.9,32.8,203.7,40.1,194.6,40.1C194.7,40.1,194.6,40.1,194.6,40.1z M386.4,372c-7.7,0-14.4-5.4-15.9-13
			c-0.5-2.5-0.5-5.1,0.2-7.6c1.9-7.1,8.4-12.1,15.7-12.1c1.2,0,2.4,0.1,3.6,0.4c-0.8,4.5-2.5,8.8-4.9,12.6c-0.8,1.1-0.6,2.6,0.5,3.5
			l3.2,2.8c1,0.9,2.6,0.9,3.6,0c3-2.5,6.4-4.4,10.1-5.7c0.1,0.9,0.2,1.8,0.2,2.6C402.7,364.6,395.4,372,386.4,372
			C386.4,372,386.4,372,386.4,372z M430.4,335c-6.1,7-13,9-19.6,10.2c-0.9,0.1-1.8,0.3-2.7,0.6c-2.5,0.6-4.9,1.3-7.3,2.2
			c-3.4,1.2-6.7,2.9-9.7,5c1.8-3.5,3.2-7.2,4-11c0.6-2.6,0.9-5.2,1-7.9V334c0.2-7.2,1-14.8,7.6-22.3c10.9-12.4,21.5-13.1,24.4-13.1
			l7.1,6.2l0,0l4.9,4.4c0.1,0.8,0.2,1.7,0.2,2.5C440.4,316,439.1,325,430.4,335L430.4,335z M454,314l-9.6-8.4L431,293.8l0,0
			l-9.5-8.4l6.9-7.8l32.6,28.6L454,314z"/>
	</g>
</g>
</svg>
