<svg xmlns="http://www.w3.org/2000/svg" viewBox="0 0 467.31 405.05"><defs><style>.cls-1{fill:#f0efef;}</style></defs><title>logo</title><g id="Layer_2" data-name="Layer 2"><g id="Layer_1-2" data-name="Layer 1"><path class="cls-1" d="M435.22,304.7v0h0Zm-12.48,12.06a5,5,0,0,0-8,5.11l-13.39,15.24a23.27,23.27,0,0,1,3.78,3.84l13.64-15.53a5,5,0,0,0,4-8.66Zm0,0a5,5,0,0,0-8,5.11l-13.39,15.24a23.27,23.27,0,0,1,3.78,3.84l13.64-15.53a5,5,0,0,0,4-8.66Zm0,0a5,5,0,0,0-8,5.11l-13.39,15.24a23.27,23.27,0,0,1,3.78,3.84l13.64-15.53a5,5,0,0,0,4-8.66Zm0,0a5,5,0,0,0-8,5.11l-13.39,15.24a23.27,23.27,0,0,1,3.78,3.84l13.64-15.53a5,5,0,0,0,4-8.66Zm12.48-12.06v0h0Zm-12.48,12.06a5,5,0,0,0-8,5.11l-13.39,15.24a23.27,23.27,0,0,1,3.78,3.84l13.64-15.53a5,5,0,0,0,4-8.66Zm0,0a5,5,0,0,0-8,5.11l-13.39,15.24a23.27,23.27,0,0,1,3.78,3.84l13.64-15.53a5,5,0,0,0,4-8.66Zm0,0a5,5,0,0,0-8,5.11l-13.39,15.24a23.27,23.27,0,0,1,3.78,3.84l13.64-15.53a5,5,0,0,0,4-8.66Zm0,0a5,5,0,0,0-8,5.11l-13.39,15.24a23.27,23.27,0,0,1,3.78,3.84l13.64-15.53a5,5,0,0,0,4-8.66Zm0,0a5,5,0,0,0-8,5.11l-13.39,15.24a23.27,23.27,0,0,1,3.78,3.84l13.64-15.53a5,5,0,0,0,4-8.66Zm12.48-12.06v0h0ZM466.4,304l-36.6-32.13a2.71,2.71,0,0,0-3.8.25l-10.39,11.83a2.7,2.7,0,0,0,.25,3.79l6.8,6c-5.77,1.18-14.42,4.6-23,14.35-7.28,8.3-8.57,16.77-8.9,24.22a22.87,22.87,0,0,0-4.4-.42,23.85,23.85,0,0,0-23.47,19.84c-29.33.48-82.75-3.78-120.49-36.5-25.25-21.89-39.73-53.15-43.21-93.1a20.05,20.05,0,0,0-.84-39.22V47.34a23.82,23.82,0,1,0-7.51,0v95.32c-7.65-27.57-21.1-50.61-40.24-68.89C116.92,41.62,73.83,31.89,47.48,29a23.81,23.81,0,1,0-.37,7.66c25.39,2.91,66.76,12.38,98.37,42.56,26.31,25.12,41.28,60,44.64,103.75a20.05,20.05,0,0,0,.74,39.24V357.71a23.82,23.82,0,1,0,7.51,0V258.83c7.51,25.19,20.59,45.95,39.15,62.05,29.81,25.81,68.42,34.46,95.57,37.17,9.34.93,17.94,1.24,25.36,1.24,1.52,0,3,0,4.39,0a23.82,23.82,0,0,0,47.36-3.61,24.49,24.49,0,0,0-.48-4.8c.66-.15,1.32-.28,2-.4,7.17-1.3,15.49-3.73,22.68-11.94,8.64-9.83,10.85-19,11.25-24.66l6.83,6a2.67,2.67,0,0,0,3.79-.25l10.39-11.84A2.67,2.67,0,0,0,466.4,304ZM39.54,36a16.25,16.25,0,1,1,.57-4.24A15.61,15.61,0,0,1,39.54,36ZM210.91,381.23a16.3,16.3,0,1,1-20-15.85,16.24,16.24,0,0,1,7.51,0A16.29,16.29,0,0,1,210.91,381.23ZM194.62,40.11a16.3,16.3,0,1,1,16.29-16.29,16.25,16.25,0,0,1-16.29,16.29ZM386.38,372A16.3,16.3,0,0,1,370.44,359a16.28,16.28,0,0,1,.21-7.59,16.3,16.3,0,0,1,15.73-12.06,15.88,15.88,0,0,1,3.62.41,35.2,35.2,0,0,1-4.92,12.59,2.69,2.69,0,0,0,.45,3.54l3.23,2.84a2.69,2.69,0,0,0,3.57,0A32.72,32.72,0,0,1,402.46,353a15.34,15.34,0,0,1,.22,2.64A16.31,16.31,0,0,1,386.38,372Zm44-37c-6.11,6.95-13,9-19.61,10.19-.87.15-1.79.34-2.73.56a61,61,0,0,0-7.3,2.2,42.11,42.11,0,0,0-9.66,4.95,43.23,43.23,0,0,0,4-11,41.58,41.58,0,0,0,1-7.85v-.09c.23-7.18,1-14.82,7.62-22.34,10.88-12.38,21.5-13.15,24.42-13.1l7.09,6.22h0l4.94,4.35a21.77,21.77,0,0,1,.17,2.53C440.37,316.05,439.1,325,430.36,335ZM454,314l-9.56-8.39L431,293.82l0,0-9.51-8.36,6.85-7.8,32.57,28.58Z"/></g></g></svg>