<svg xmlns="http://www.w3.org/2000/svg" viewBox="0 0 359.61 402.67"><defs><style>.cls-1{fill:#f0efef;}</style></defs><title>webDev</title><g id="Layer_2" data-name="Layer 2"><g id="Layer_1-2" data-name="Layer 1"><path class="cls-1" d="M313,0H3.65A3.65,3.65,0,0,0,0,3.65V399a3.65,3.65,0,0,0,3.65,3.65H279.24a3.65,3.65,0,0,0,0-7.3H7.3V61.1H309.37V313.31a3.65,3.65,0,1,0,7.29,0V3.65A3.64,3.64,0,0,0,313,0Zm-3.65,53.8H7.3V7.3H309.37ZM279,117.38H188.28a3.65,3.65,0,0,1,0-7.3H279a3.65,3.65,0,0,1,0,7.3Zm0,21H188.28a3.65,3.65,0,0,1,0-7.3H279a3.65,3.65,0,0,1,0,7.3Zm0,21H188.28a3.65,3.65,0,1,1,0-7.29H279a3.65,3.65,0,1,1,0,7.29Zm0,21H188.28a3.65,3.65,0,0,1,0-7.3H279a3.65,3.65,0,0,1,0,7.3Zm0,21H188.28a3.65,3.65,0,0,1,0-7.3H279a3.65,3.65,0,1,1,0,7.3ZM158.23,92.86a1.31,1.31,0,0,0-.09-.34,4.1,4.1,0,0,0-.43-1,4.48,4.48,0,0,0-.48-.58,3.35,3.35,0,0,0-.59-.48,3.79,3.79,0,0,0-1-.44,3,3,0,0,0-.65-.13l-.39,0H30.33a3.33,3.33,0,0,0-.7.07,1.77,1.77,0,0,0-.33.08,3.79,3.79,0,0,0-1,.44,3.35,3.35,0,0,0-.59.48,4.48,4.48,0,0,0-.48.58,4.1,4.1,0,0,0-.43,1,1.89,1.89,0,0,0-.09.34,3.23,3.23,0,0,0-.07.69V217.88c0,.12,0,.25,0,.37a2.43,2.43,0,0,0,.14.66,3.92,3.92,0,0,0,.43,1,4.48,4.48,0,0,0,.48.58,3.33,3.33,0,0,0,.6.48,2.82,2.82,0,0,0,.29.18,3.56,3.56,0,0,0,1.69.42H154.65a3.93,3.93,0,0,0,1.13-.18,3.5,3.5,0,0,0,.56-.24,2,2,0,0,0,.29-.18,3.33,3.33,0,0,0,.6-.48,4.48,4.48,0,0,0,.48-.58,3.92,3.92,0,0,0,.43-1,2.43,2.43,0,0,0,.14-.66c0-.12,0-.25,0-.37V93.55A3.23,3.23,0,0,0,158.23,92.86ZM145.84,97.2,92.49,150.55,39.14,97.2ZM34,102.36l53.35,53.36L34,209.07Zm5.16,111.87,53.35-53.35,53.35,53.35ZM151,209.07,97.65,155.72,151,102.36Zm62.5,42.58H95.82a3.65,3.65,0,1,1,0-7.3H213.5a3.65,3.65,0,0,1,0,7.3Zm62.86,15.13a1.43,1.43,0,0,0,0-.22.5.5,0,0,0-.05-.21,1,1,0,0,0-.06-.25,2.3,2.3,0,0,0-.12-.34c0-.1-.1-.22-.15-.31a3.5,3.5,0,0,0-.4-.58h0a1.9,1.9,0,0,0-.24-.25,1.48,1.48,0,0,0-.26-.24,1.21,1.21,0,0,0-.28-.21,3.38,3.38,0,0,0-1.23-.53l-.22-.05a.85.85,0,0,0-.23,0l-.33,0H36.56l-.33,0-.23,0-.25.05a3.17,3.17,0,0,0-.84.32,1,1,0,0,0-.25.15,3.35,3.35,0,0,0-1.1,1,1.35,1.35,0,0,0-.15.26.64.64,0,0,0-.11.2l-.12.28a2.47,2.47,0,0,0-.1.29,3,3,0,0,0-.1.5,2.81,2.81,0,0,0,0,.5v67.25a2.81,2.81,0,0,0,0,.5,3,3,0,0,0,.1.5,2,2,0,0,0,.1.29l.12.28a.64.64,0,0,0,.11.2.72.72,0,0,0,.11.19,2,2,0,0,0,.27.38L34,337a3.2,3.2,0,0,0,.27.25,2.61,2.61,0,0,0,.27.19,1.7,1.7,0,0,0,.22.15,3.92,3.92,0,0,0,1,.39l.23,0a.85.85,0,0,0,.23,0l.36,0H272.73l.35,0a1.93,1.93,0,0,0,.44-.07,1.23,1.23,0,0,0,.29-.08,3.27,3.27,0,0,0,.67-.28,1.67,1.67,0,0,0,.28-.18,1.55,1.55,0,0,0,.28-.2,3.08,3.08,0,0,0,.26-.24l.24-.25a2,2,0,0,0,.21-.3c.06-.09.13-.19.19-.3s.1-.21.15-.31a2.3,2.3,0,0,0,.12-.34,1,1,0,0,0,.06-.25.49.49,0,0,0,.05-.2,2.07,2.07,0,0,0,0-.22,2.82,2.82,0,0,0,0-.41V267.18A2.68,2.68,0,0,0,276.36,266.78Zm-29.78,4.05L154.66,297,62.73,270.83ZM40.23,272l101.09,28.79L40.23,329.59Zm22.5,58.76,91.93-26.18,91.92,26.18Zm206.35-1.19L168,300.81,269.08,272Zm7.19,5.67a.86.86,0,0,1,0,.17l0,.08A1,1,0,0,0,276.27,335.26Zm0-68.91a1,1,0,0,0-.06-.25l0,.08A1,1,0,0,1,276.27,266.35Zm-3.54,89.73H36.59a3.65,3.65,0,0,1,0-7.3H272.73a3.65,3.65,0,0,1,0,7.3Zm0,14.74H36.59a3.65,3.65,0,0,1,0-7.3H272.73a3.65,3.65,0,0,1,0,7.3Zm0,14.73H36.59a3.65,3.65,0,0,1,0-7.3H272.73a3.65,3.65,0,0,1,0,7.3Zm85.19-28.49a2.51,2.51,0,0,0,1.33-3.28l-3.38-7.95a2.51,2.51,0,0,0-3.28-1.33l-2.16.92a3.67,3.67,0,0,1-3.94-.92l-3.92-3.86a3.66,3.66,0,0,1-1-3.91l.88-2.18a2.5,2.5,0,0,0-1.38-3.26l-8-3.24a2.52,2.52,0,0,0-3.26,1.38l-.88,2.18a3.66,3.66,0,0,1-3.43,2.13l-5.5.05a3.65,3.65,0,0,1-3.47-2.07l-.92-2.16a2.51,2.51,0,0,0-3.28-1.33l-8,3.38a2.51,2.51,0,0,0-1.32,3.28l.92,2.16a3.69,3.69,0,0,1-.92,3.94l-3.86,3.92a3.64,3.64,0,0,1-3.91,1l-2.19-.88a2.5,2.5,0,0,0-3.25,1.38l-3.24,8a2.51,2.51,0,0,0,1.38,3.26l2.18.88a3.64,3.64,0,0,1,2.13,3.43l0,5.5a3.65,3.65,0,0,1-2.07,3.47l-2.16.92a2.51,2.51,0,0,0-1.33,3.28l3.38,8a2.51,2.51,0,0,0,3.28,1.32l2.16-.91a3.66,3.66,0,0,1,3.94.91l3.92,3.87a3.63,3.63,0,0,1,1,3.91l-.88,2.18a2.49,2.49,0,0,0,1.38,3.25l8,3.24a2.5,2.5,0,0,0,3.26-1.38l.88-2.18a3.63,3.63,0,0,1,3.43-2.12l5.5-.06a3.66,3.66,0,0,1,3.47,2.07l.92,2.17a2.51,2.51,0,0,0,3.28,1.32l8-3.38A2.51,2.51,0,0,0,343,394l-.91-2.16A3.64,3.64,0,0,1,343,388l3.87-3.92a3.65,3.65,0,0,1,3.91-1l2.18.88a2.49,2.49,0,0,0,3.25-1.38l3.24-8a2.51,2.51,0,0,0-1.38-3.26l-2.18-.88a3.62,3.62,0,0,1-2.12-3.43l-.06-5.5a3.66,3.66,0,0,1,2.07-3.47Zm-15,7.52c0,.31,0,.56,0,.56s0,.52-.06,1.16l-.08.58v0c-.07.57-.17,1.14-.29,1.7h0a20,20,0,0,1-2.58,6.39h0c-.3.49-.63,1-1,1.42l0,0-.35.46c-.41.48-.92,1.06-1.14,1.29s-.8.8-.8.8l-.79.7-.41.33-.15.12c-.4.31-.81.61-1.24.89l-.22.14c-.43.28-.87.54-1.32.79l-.21.1c-.48.25-1,.49-1.47.71h0c-.51.21-1,.39-1.53.56l-.22.08c-.49.16-1,.29-1.47.41l-.28.06c-.49.11-1,.2-1.48.27l-.21,0c-.52.07-1,.12-1.56.14s-1.14,0-1.71,0-1.14-.07-1.7-.14h-.07c-.56-.07-1.11-.16-1.66-.28h0a19.88,19.88,0,0,1-6.36-2.57l0,0c-.48-.3-.95-.62-1.4-1l0,0-.46-.35c-.48-.41-1.06-.92-1.29-1.13s-1.11-1.16-1.5-1.59l-.32-.41a1,1,0,0,1-.13-.16c-.31-.39-.6-.81-.88-1.23l-.15-.23c-.28-.43-.54-.86-.78-1.31,0-.07-.07-.15-.11-.21-.25-.48-.49-1-.7-1.48s-.4-1-.57-1.52l-.08-.23c-.15-.48-.29-1-.4-1.47,0-.09,0-.18-.07-.27-.11-.49-.2-1-.27-1.49a1.36,1.36,0,0,1,0-.2l-.07-.52c-.05-.58-.09-1.3-.1-1.61s0-1.65.07-2.28l.07-.57a.11.11,0,0,0,0-.05c.07-.57.16-1.13.28-1.68v0a19.79,19.79,0,0,1,2.57-6.36l0,0c.3-.48.62-.94,1-1.4l0,0a17.1,17.1,0,0,1,1.09-1.33l.38-.42c.44-.44,1.16-1.11,1.59-1.49l.42-.33.15-.12c.4-.32.81-.61,1.24-.89l.22-.15c.43-.27.87-.53,1.33-.78l.19-.1c.48-.25,1-.49,1.48-.71s1-.4,1.54-.57l.2-.07c.5-.16,1-.29,1.49-.41l.25-.06c.5-.11,1-.2,1.51-.27l.17,0,.53-.08,1.06-.08h1.7l1.16.07.57.07h0a19.92,19.92,0,0,1,9.54,3.86h0l.46.35.88.76.42.38.8.8.71.8.33.42a1.47,1.47,0,0,1,.1.13c.32.4.62.82.9,1.25l.13.2c.28.44.55.89.8,1.35l.09.17c.25.49.49,1,.71,1.5s.41,1,.58,1.55l.06.18c.16.5.3,1,.41,1.51l.06.23c.11.51.21,1,.28,1.52a.78.78,0,0,0,0,.16l.07.53c0,.59.08,1.07.08,1.07S342.92,364.27,342.91,364.58Z"/></g></g></svg>