<?xml version="1.0" encoding="utf-8"?>
<!-- Generator: Adobe Illustrator 22.1.0, SVG Export Plug-In . SVG Version: 6.00 Build 0)  -->
<svg version="1.1" id="Layer_1" xmlns="http://www.w3.org/2000/svg" xmlns:xlink="http://www.w3.org/1999/xlink" x="0px" y="0px"
	 viewBox="0 0 359.6 402.7" style="enable-background:new 0 0 359.6 402.7;" xml:space="preserve">
<style type="text/css">
	.st0{fill:#F0EFEF;}
</style>
<title>webDev</title>
<g id="Layer_2_1_">
	<g id="Layer_1-2">
		<path class="st0" d="M313,0H3.7C1.6,0,0,1.6,0,3.7c0,0,0,0,0,0V399c0,2,1.6,3.6,3.7,3.6h275.6c2,0,3.6-1.6,3.6-3.7
			c0-2-1.6-3.6-3.6-3.6H7.3V61.1h302.1v252.2c-0.1,2,1.4,3.7,3.5,3.8s3.7-1.4,3.8-3.5c0-0.1,0-0.3,0-0.4V3.7C316.7,1.6,315,0,313,0
			C313,0,313,0,313,0z M309.4,53.8H7.3V7.3h302.1L309.4,53.8z M279,117.4h-90.7c-2,0-3.6-1.6-3.6-3.7s1.6-3.7,3.6-3.7H279
			c2,0,3.6,1.6,3.6,3.7S281,117.4,279,117.4z M279,138.4h-90.7c-2,0-3.6-1.6-3.6-3.6c0-2,1.6-3.7,3.6-3.7H279c2,0,3.6,1.6,3.6,3.7
			C282.6,136.7,281,138.4,279,138.4z M279,159.4h-90.7c-2,0.1-3.7-1.4-3.8-3.5s1.4-3.7,3.5-3.8c0.1,0,0.3,0,0.4,0H279
			c2-0.1,3.7,1.4,3.8,3.5c0.1,2-1.4,3.7-3.5,3.8C279.3,159.4,279.1,159.4,279,159.4z M279,180.4h-90.7c-2,0-3.6-1.6-3.6-3.6
			c0-2,1.6-3.7,3.6-3.7H279c2,0,3.6,1.6,3.6,3.7C282.6,178.7,281,180.4,279,180.4z M279,201.4h-90.7c-2,0-3.6-1.6-3.6-3.6
			c0-2,1.6-3.7,3.6-3.7H279c2,0,3.6,1.6,3.6,3.7C282.6,199.7,281,201.4,279,201.4z M158.2,92.9c0-0.1,0-0.2-0.1-0.3
			c-0.1-0.4-0.2-0.7-0.4-1c-0.1-0.2-0.3-0.4-0.5-0.6c-0.2-0.2-0.4-0.3-0.6-0.5c-0.3-0.2-0.6-0.3-1-0.4c-0.2-0.1-0.4-0.1-0.6-0.1
			h-0.4H30.3c-0.2,0-0.5,0-0.7,0.1c-0.1,0-0.2,0-0.3,0.1c-0.4,0.1-0.7,0.2-1,0.4c-0.2,0.1-0.4,0.3-0.6,0.5c-0.2,0.2-0.3,0.4-0.5,0.6
			c-0.2,0.3-0.3,0.6-0.4,1c0,0.1-0.1,0.2-0.1,0.3c0,0.2-0.1,0.5-0.1,0.7v124.3c0,0.1,0,0.3,0,0.4c0,0.2,0.1,0.4,0.1,0.7
			c0.1,0.4,0.2,0.7,0.4,1c0.1,0.2,0.3,0.4,0.5,0.6c0.2,0.2,0.4,0.3,0.6,0.5c0.1,0.1,0.2,0.1,0.3,0.2c0.5,0.3,1.1,0.4,1.7,0.4h124.4
			c0.4,0,0.8-0.1,1.1-0.2c0.2-0.1,0.4-0.1,0.6-0.2c0.1-0.1,0.2-0.1,0.3-0.2c0.2-0.1,0.4-0.3,0.6-0.5c0.2-0.2,0.3-0.4,0.5-0.6
			c0.2-0.3,0.3-0.6,0.4-1c0.1-0.2,0.1-0.4,0.1-0.7c0-0.1,0-0.3,0-0.4V93.6C158.3,93.3,158.3,93.1,158.2,92.9z M145.8,97.2
			l-53.3,53.4L39.1,97.2H145.8z M34,102.4l53.3,53.4L34,209.1V102.4z M39.2,214.2l53.3-53.4l53.3,53.4H39.2z M151,209.1l-53.3-53.4
			l53.3-53.4V209.1z M213.5,251.7H95.8c-2,0-3.7-1.6-3.7-3.7c0-2,1.6-3.6,3.7-3.6h117.7c2,0,3.6,1.6,3.6,3.6
			C217.1,250,215.5,251.7,213.5,251.7z M276.4,266.8c0-0.1,0-0.1,0-0.2c0-0.1,0-0.1,0-0.2c0-0.1,0-0.2-0.1-0.3
			c0-0.1-0.1-0.2-0.1-0.3c0-0.1-0.1-0.2-0.1-0.3c-0.1-0.2-0.2-0.4-0.4-0.6l0,0c-0.1-0.1-0.2-0.2-0.2-0.3c-0.1-0.1-0.2-0.2-0.3-0.2
			c-0.1-0.1-0.2-0.2-0.3-0.2c-0.4-0.3-0.8-0.4-1.2-0.5l-0.2,0c-0.1,0-0.2,0-0.2,0h-0.3H36.6h-0.3H36l-0.3,0
			c-0.3,0.1-0.6,0.2-0.8,0.3c-0.1,0-0.2,0.1-0.3,0.1c-0.4,0.2-0.8,0.6-1.1,1c-0.1,0.1-0.1,0.2-0.2,0.3c0,0.1-0.1,0.1-0.1,0.2
			l-0.1,0.3c0,0.1-0.1,0.2-0.1,0.3c0,0.2-0.1,0.3-0.1,0.5c0,0.2,0,0.3,0,0.5v67.3c0,0.2,0,0.3,0,0.5c0,0.2,0.1,0.3,0.1,0.5
			c0,0.1,0.1,0.2,0.1,0.3l0.1,0.3c0,0.1,0.1,0.1,0.1,0.2c0,0.1,0.1,0.1,0.1,0.2c0.1,0.1,0.2,0.3,0.3,0.4L34,337
			c0.1,0.1,0.2,0.2,0.3,0.3c0.1,0.1,0.2,0.1,0.3,0.2c0.1,0.1,0.1,0.1,0.2,0.1c0.3,0.2,0.7,0.3,1,0.4H36c0.1,0,0.2,0,0.2,0h0.4h236.2
			h0.4c0.1,0,0.3,0,0.4-0.1c0.1,0,0.2,0,0.3-0.1c0.2-0.1,0.5-0.2,0.7-0.3c0.1-0.1,0.2-0.1,0.3-0.2c0.1-0.1,0.2-0.1,0.3-0.2
			c0.1-0.1,0.2-0.2,0.3-0.2l0.2-0.3c0.1-0.1,0.1-0.2,0.2-0.3c0.1-0.1,0.1-0.2,0.2-0.3s0.1-0.2,0.1-0.3c0-0.1,0.1-0.2,0.1-0.3
			c0-0.1,0.1-0.2,0.1-0.3c0-0.1,0-0.1,0-0.2c0-0.1,0-0.1,0-0.2c0-0.1,0-0.3,0-0.4v-67.2C276.3,267,276.4,266.9,276.4,266.8z
			 M246.6,270.8L154.7,297l-91.9-26.2H246.6z M40.2,272l101.1,28.8L40.2,329.6V272z M62.7,330.8l91.9-26.2l91.9,26.2H62.7z
			 M269.1,329.6L168,300.8L269.1,272L269.1,329.6z M276.3,335.2c0,0.1,0,0.1,0,0.2v0.1C276.3,335.4,276.3,335.3,276.3,335.2
			L276.3,335.2z M276.3,266.3c0-0.1,0-0.2-0.1-0.3v0.1C276.2,266.2,276.3,266.3,276.3,266.3L276.3,266.3z M272.7,356.1H36.6
			c-2,0-3.6-1.6-3.6-3.7c0-2,1.6-3.6,3.6-3.6h236.1c2,0,3.6,1.6,3.6,3.7C276.4,354.4,274.7,356.1,272.7,356.1z M272.7,370.8H36.6
			c-2,0-3.6-1.6-3.6-3.7c0-2,1.6-3.6,3.6-3.6h236.1c2,0,3.6,1.6,3.6,3.7C276.4,369.2,274.7,370.8,272.7,370.8z M272.7,385.5H36.6
			c-2,0-3.6-1.6-3.6-3.7c0-2,1.6-3.6,3.6-3.6h236.1c2,0,3.6,1.6,3.6,3.7C276.4,383.9,274.7,385.5,272.7,385.5z M357.9,357
			c1.3-0.5,1.9-2,1.3-3.3l-3.4-8c-0.5-1.3-2-1.9-3.3-1.3l-2.2,0.9c-1.4,0.5-2.9,0.1-3.9-0.9l-3.9-3.9c-1.1-1-1.5-2.5-1-3.9l0.9-2.2
			c0.5-1.3-0.1-2.7-1.4-3.3c0,0,0,0,0,0l-8-3.2c-1.3-0.5-2.7,0.1-3.3,1.4l-0.9,2.2c-0.6,1.3-2,2.2-3.4,2.1l-5.5,0
			c-1.5,0.1-2.8-0.7-3.5-2.1l-0.9-2.2c-0.5-1.3-2-1.9-3.3-1.3l-8,3.4c-1.3,0.5-1.9,2-1.3,3.3l0.9,2.2c0.5,1.4,0.1,2.9-0.9,3.9
			l-3.9,3.9c-1,1.1-2.5,1.5-3.9,1L293,345c-1.3-0.5-2.7,0.1-3.3,1.4l-3.2,8c-0.5,1.3,0.1,2.7,1.4,3.3l2.2,0.9c1.3,0.6,2.2,2,2.1,3.4
			v5.5c0.1,1.5-0.7,2.8-2.1,3.5l-2.2,0.9c-1.3,0.5-1.9,2-1.3,3.3l3.4,8c0.5,1.3,2,1.9,3.3,1.3l2.2-0.9c1.4-0.5,2.9-0.2,3.9,0.9
			l3.9,3.9c1.1,1,1.5,2.5,1,3.9l-0.9,2.2c-0.5,1.3,0.1,2.7,1.4,3.2c0,0,0,0,0,0l8,3.2c1.3,0.5,2.7-0.1,3.3-1.4c0,0,0,0,0,0l0.9-2.2
			c0.6-1.3,2-2.2,3.4-2.1l5.5-0.1c1.5-0.1,2.8,0.7,3.5,2.1l0.9,2.2c0.5,1.3,2,1.9,3.3,1.3l8-3.4c1.3-0.5,1.9-2,1.4-3.3
			c0,0,0-0.1,0-0.1l-0.9-2.2c-0.5-1.3-0.1-2.8,0.9-3.8l3.9-3.9c1-1.1,2.5-1.5,3.9-1l2.2,0.9c1.3,0.5,2.7-0.1,3.2-1.4c0,0,0,0,0,0
			l3.2-8c0.5-1.3-0.1-2.7-1.4-3.3l-2.2-0.9c-1.3-0.6-2.2-2-2.1-3.4l-0.1-5.5c-0.1-1.5,0.7-2.8,2.1-3.5L357.9,357z M342.9,364.6
			c0,0.3,0,0.6,0,0.6s0,0.5-0.1,1.2l-0.1,0.6l0,0c-0.1,0.6-0.2,1.1-0.3,1.7l0,0c-0.5,2.3-1.4,4.4-2.6,6.4l0,0c-0.3,0.5-0.6,1-1,1.4
			l0,0l-0.4,0.5c-0.4,0.5-0.9,1.1-1.1,1.3s-0.8,0.8-0.8,0.8l-0.8,0.7l-0.4,0.3l-0.1,0.1c-0.4,0.3-0.8,0.6-1.2,0.9l-0.2,0.1
			c-0.4,0.3-0.9,0.5-1.3,0.8l-0.2,0.1c-0.5,0.3-1,0.5-1.5,0.7l0,0c-0.5,0.2-1,0.4-1.5,0.6l-0.2,0.1c-0.5,0.2-1,0.3-1.5,0.4l-0.3,0.1
			c-0.5,0.1-1,0.2-1.5,0.3h-0.2c-0.5,0.1-1,0.1-1.6,0.1s-1.1,0-1.7,0s-1.1-0.1-1.7-0.1h-0.1c-0.6-0.1-1.1-0.2-1.7-0.3l0,0
			c-2.3-0.5-4.4-1.4-6.4-2.6l0,0c-0.5-0.3-1-0.6-1.4-1l0,0l-0.5-0.4c-0.5-0.4-1.1-0.9-1.3-1.1s-1.1-1.2-1.5-1.6l-0.3-0.4
			c0,0-0.1-0.1-0.1-0.2c-0.3-0.4-0.6-0.8-0.9-1.2l-0.1-0.2c-0.3-0.4-0.5-0.9-0.8-1.3c0-0.1-0.1-0.1-0.1-0.2c-0.3-0.5-0.5-1-0.7-1.5
			s-0.4-1-0.6-1.5l-0.1-0.2c-0.1-0.5-0.3-1-0.4-1.5c0-0.1,0-0.2-0.1-0.3c-0.1-0.5-0.2-1-0.3-1.5c0-0.1,0-0.1,0-0.2l-0.1-0.5
			c0-0.6-0.1-1.3-0.1-1.6s0-1.6,0.1-2.3l0.1-0.6c0,0,0,0,0,0c0.1-0.6,0.2-1.1,0.3-1.7l0,0c0.5-2.3,1.3-4.4,2.6-6.4l0,0
			c0.3-0.5,0.6-0.9,1-1.4l0,0c0.3-0.5,0.7-0.9,1.1-1.3l0.4-0.4c0.4-0.4,1.2-1.1,1.6-1.5l0.4-0.3l0.1-0.1c0.4-0.3,0.8-0.6,1.2-0.9
			l0.2-0.1c0.4-0.3,0.9-0.5,1.3-0.8l0.2-0.1c0.5-0.3,1-0.5,1.5-0.7s1-0.4,1.5-0.6l0.2-0.1c0.5-0.2,1-0.3,1.5-0.4l0.3-0.1
			c0.5-0.1,1-0.2,1.5-0.3h0.2l0.5-0.1l1.1-0.1h1.7l1.2,0.1l0.6,0.1l0,0c3.5,0.4,6.8,1.8,9.5,3.9l0,0l0.5,0.4l0.9,0.8l0.4,0.4
			l0.8,0.8l0.7,0.8l0.3,0.4c0,0,0.1,0.1,0.1,0.1c0.3,0.4,0.6,0.8,0.9,1.3l0.1,0.2c0.3,0.4,0.5,0.9,0.8,1.4l0.1,0.2
			c0.3,0.5,0.5,1,0.7,1.5s0.4,1,0.6,1.5l0.1,0.2c0.2,0.5,0.3,1,0.4,1.5l0.1,0.2c0.1,0.5,0.2,1,0.3,1.5c0,0.1,0,0.1,0,0.2l0.1,0.5
			c0,0.6,0.1,1.1,0.1,1.1S342.9,364.3,342.9,364.6L342.9,364.6z"/>
	</g>
</g>
</svg>
